<svg xmlns="http://www.w3.org/2000/svg" viewBox="0 0 64 64" role="img" aria-label="JoinGo logo">
  <defs>
    <linearGradient id="g" x1="0" x2="1" y1="0" y2="1">
      <stop offset="0" stop-color="#0ea5e9" />
      <stop offset="1" stop-color="#0b74c4" />
    </linearGradient>
  </defs>
  <rect width="64" height="64" rx="14" fill="#0b1224" />
  <path fill="url(#g)" d="M18 18a8 8 0 0 1 8-8h12a8 8 0 0 1 8 8v4.5l4.8-3.2A2 2 0 0 1 54 21v22a2 2 0 0 1-3.2 1.7L46 41.5V46a8 8 0 0 1-8 8H26a8 8 0 0 1-8-8Zm8-6a6 6 0 0 0-6 6v24a6 6 0 0 0 6 6h12a6 6 0 0 0 6-6V18a6 6 0 0 0-6-6Z" />
  <circle cx="24" cy="24" r="3.5" fill="#fff" />
  <circle cx="24" cy="40" r="3.5" fill="#fff" />
</svg>
